# Blender v3.2.2 OBJ File: 'FireBlu.blend'
# www.blender.org
mtllib FireBlu.mtl
o Circle
v 0.000000 1.000000 0.000000
v -0.167760 0.844466 0.000000
v -0.382683 0.923880 0.000000
v -0.477741 0.715903 0.000000
v -0.707107 0.707107 0.000000
v -0.714990 0.478351 0.000000
v -0.923880 0.382683 0.000000
v -0.843389 0.167975 0.000000
v -1.000000 -0.000000 -0.000000
v -0.843389 -0.167975 -0.000000
v -0.923880 -0.382683 -0.000000
v -0.714990 -0.478351 -0.000000
v -0.707107 -0.707107 -0.000000
v -0.477741 -0.715903 -0.000000
v -0.382683 -0.923880 -0.000000
v -0.167760 -0.844466 -0.000000
v 0.000000 -1.000000 -0.000000
v 0.167760 -0.844466 -0.000000
v 0.382683 -0.923880 -0.000000
v 0.477741 -0.715903 -0.000000
v 0.707107 -0.707107 -0.000000
v 0.714990 -0.478352 -0.000000
v 0.923880 -0.382684 -0.000000
v 0.843389 -0.167975 -0.000000
v 1.000000 0.000000 0.000000
v 0.843389 0.167975 0.000000
v 0.923879 0.382684 0.000000
v 0.714991 0.478351 0.000000
v 0.707107 0.707107 0.000000
v 0.477741 0.715903 0.000000
v 0.382683 0.923880 0.000000
v 0.167760 0.844466 0.000000
v -0.000000 0.412564 -1.352612
v -0.071265 0.348396 -1.000000
v -0.162566 0.381159 -1.352612
v -0.202947 0.295356 -1.000000
v -0.300382 0.291726 -1.352612
v -0.303731 0.197350 -1.000000
v -0.392468 0.157881 -1.352612
v -0.358276 0.069300 -1.000000
v -0.424805 -0.000000 -1.352612
v -0.358276 -0.069300 -1.000000
v -0.392468 -0.157881 -1.352612
v -0.303731 -0.197350 -1.000000
v -0.300382 -0.291727 -1.352612
v -0.202947 -0.295356 -1.000000
v -0.162566 -0.381159 -1.352612
v -0.071265 -0.348396 -1.000000
v 0.000000 -0.412564 -1.352612
v 0.071265 -0.348396 -1.000000
v 0.162566 -0.381159 -1.352612
v 0.202947 -0.295356 -1.000000
v 0.300382 -0.291727 -1.352612
v 0.303731 -0.197350 -1.000000
v 0.392468 -0.157881 -1.352612
v 0.358276 -0.069300 -1.000000
v 0.424805 -0.000000 -1.352612
v 0.358276 0.069300 -1.000000
v 0.392468 0.157881 -1.352612
v 0.303731 0.197350 -1.000000
v 0.300382 0.291726 -1.352612
v 0.202947 0.295356 -1.000000
v 0.162566 0.381159 -1.352612
v 0.071265 0.348396 -1.000000
vt -3.693294 0.625020
vt -2.832266 0.418344
vt -2.832267 5.471770
vt -3.643395 4.458234
vt 0.619453 5.398743
vt -0.121811 5.261209
vt -0.223245 1.444324
vt 0.619453 0.430987
vt -5.361483 0.557523
vt -4.620525 0.420435
vt -4.620526 5.401220
vt -5.470049 4.388135
vt 3.275530 0.440398
vt 2.412532 0.235844
vt 2.463297 -3.597074
vt 3.275532 -4.610642
vt 3.530287 0.444472
vt 4.056842 0.440397
vt 4.056842 5.227359
vt 3.275532 4.166941
vt -1.940362 0.433051
vt -2.814781 0.228565
vt -2.609609 -3.560378
vt -1.940361 -4.610642
vt -0.192657 -4.404682
vt 0.680629 -4.610642
vt 0.680629 0.430988
vt 0.013371 -0.619311
vt 6.543054 5.206877
vt 6.018209 5.201638
vt 5.768317 1.488175
vt 6.543055 0.427366
vt -6.331077 0.627111
vt -5.470049 0.420435
vt -5.470049 5.473860
vt -6.281178 4.460324
vt 4.988121 5.401498
vt 4.244888 5.266480
vt 4.138531 1.440468
vt 4.988121 0.427366
vt 0.789194 0.562069
vt 1.530151 0.424981
vt 1.530151 5.405765
vt 0.680628 4.392682
vt 4.138531 0.440398
vt 3.275532 0.235844
vt 3.326297 -3.597074
vt 4.138531 -4.610642
vt 6.789804 0.431061
vt 7.316679 0.427366
vt 7.316679 5.197307
vt 6.543055 4.136597
vt -1.065943 0.433051
vt -1.940361 0.228565
vt -1.735190 -3.560378
vt -1.065943 -4.610642
vt -1.065943 -4.404682
vt -0.192657 -4.610642
vt -0.192657 0.430988
vt -0.859915 -0.619311
vt 5.768316 5.204843
vt 5.239733 5.202324
vt 4.988120 1.487718
vt 5.768316 0.427366
vt 2.379740 5.399113
vt 1.636508 5.264093
vt 1.530151 1.438082
vt 2.379741 0.424981
vt -1.841138 0.568513
vt -1.097602 0.433051
vt -1.097602 5.394110
vt -1.940361 4.380780
vt 6.804203 -4.606948
vt 7.331077 -4.610642
vt 7.331077 0.159298
vt 6.557453 -0.901412
vt -3.693294 0.418345
vt -4.571807 0.215674
vt -4.356623 -3.560217
vt -3.693294 -4.610642
vt 5.782715 0.166833
vt 5.254132 0.164313
vt 5.002519 -3.550292
vt 5.782715 -4.610642
vt 1.546581 -4.407372
vt 2.412532 -4.610642
vt 2.412532 0.424981
vt 1.606105 -0.588736
vt -2.715556 0.568513
vt -1.972020 0.433051
vt -1.972020 5.394109
vt -2.814781 4.380780
vt -3.707820 5.456352
vt -4.571807 5.250946
vt -4.513143 1.432041
vt -3.707820 0.418345
vt -2.814781 0.418345
vt -3.693294 0.215674
vt -3.478110 -3.560217
vt -2.814781 -4.610642
vt -6.331077 -4.409454
vt -5.451441 -4.610642
vt -5.451441 0.420435
vt -6.116767 -0.629956
vt 0.680628 -4.407372
vt 1.546580 -4.610642
vt 1.546580 0.424981
vt 0.740153 -0.588736
vt -0.223245 5.398743
vt -0.964508 5.261209
vt -1.065943 1.444325
vt -0.223245 0.430987
vt 5.002518 0.427366
vt 4.138531 0.221959
vt 4.197195 -3.596945
vt 5.002518 -4.610642
vt 2.667288 0.444472
vt 3.193842 0.440397
vt 3.193842 5.227359
vt 2.412532 4.166941
vt -5.451441 -4.409454
vt -4.571807 -4.610642
vt -4.571807 0.420436
vt -5.237133 -0.629956
vt 6.557452 0.168868
vt 6.032608 0.163629
vt 5.782715 -3.549834
vt 6.557452 -4.610642
vn -0.8326 0.4893 -0.2595
vn 0.9361 -0.2439 -0.2533
vn 0.5828 -0.7695 -0.2613
vn 0.5828 0.7695 -0.2613
vn -0.2457 0.9337 -0.2606
vn -0.8326 -0.4893 -0.2595
vn -0.9573 0.1338 -0.2562
vn 0.9573 0.1338 -0.2562
vn 0.8326 -0.4893 -0.2595
vn 0.2457 0.9337 -0.2606
vn -0.5828 0.7695 -0.2613
vn -0.5828 -0.7695 -0.2613
vn -0.9361 -0.2439 -0.2533
vn 0.8326 0.4893 -0.2595
vn 0.9573 -0.1338 -0.2562
vn -0.1294 0.9575 -0.2577
vn -0.2457 -0.9337 -0.2606
vn -0.7707 -0.5850 -0.2526
vn 0.9361 0.2439 -0.2533
vn -0.4867 0.8357 -0.2544
vn 0.1294 -0.9575 -0.2577
vn -0.4867 -0.8357 -0.2544
vn 0.7707 0.5850 -0.2526
vn -0.7707 0.5850 -0.2526
vn 0.4867 -0.8357 -0.2544
vn -0.1294 -0.9575 -0.2577
vn 0.4867 0.8357 -0.2544
vn -0.9361 0.2439 -0.2533
vn 0.7707 -0.5850 -0.2526
vn 0.2457 -0.9337 -0.2606
vn 0.1294 0.9575 -0.2577
vn -0.9573 -0.1338 -0.2562
usemtl Material.001
s off
f 2/1/1 1/2/1 33/3/1 34/4/1
f 29/5/2 28/6/2 60/7/2 61/8/2
f 16/9/3 15/10/3 47/11/3 48/12/3
f 3/13/4 2/14/4 34/15/4 35/16/4
f 30/17/5 29/18/5 61/19/5 62/20/5
f 17/21/6 16/22/6 48/23/6 49/24/6
f 4/25/7 3/26/7 35/27/7 36/28/7
f 31/29/8 30/30/8 62/31/8 63/32/8
f 18/33/9 17/34/9 49/35/9 50/36/9
f 5/37/10 4/38/10 36/39/10 37/40/10
f 32/41/11 31/42/11 63/43/11 64/44/11
f 19/45/12 18/46/12 50/47/12 51/48/12
f 6/49/13 5/50/13 37/51/13 38/52/13
f 1/53/14 32/54/14 64/55/14 33/56/14
f 20/57/15 19/58/15 51/59/15 52/60/15
f 7/61/16 6/62/16 38/63/16 39/64/16
f 21/65/17 20/66/17 52/67/17 53/68/17
f 8/69/18 7/70/18 39/71/18 40/72/18
f 22/73/19 21/74/19 53/75/19 54/76/19
f 9/77/20 8/78/20 40/79/20 41/80/20
f 23/81/21 22/82/21 54/83/21 55/84/21
f 10/85/22 9/86/22 41/87/22 42/88/22
f 24/89/23 23/90/23 55/91/23 56/92/23
f 11/93/24 10/94/24 42/95/24 43/96/24
f 25/97/25 24/98/25 56/99/25 57/100/25
f 12/101/26 11/102/26 43/103/26 44/104/26
f 26/105/27 25/106/27 57/107/27 58/108/27
f 13/109/28 12/110/28 44/111/28 45/112/28
f 27/113/29 26/114/29 58/115/29 59/116/29
f 14/117/30 13/118/30 45/119/30 46/120/30
f 28/121/31 27/122/31 59/123/31 60/124/31
f 15/125/32 14/126/32 46/127/32 47/128/32
